<?xml version="1.0" encoding="utf-8"?>
<!-- Generator: Adobe Illustrator 24.1.1, SVG Export Plug-In . SVG Version: 6.00 Build 0)  -->
<svg version="1.1" id="Layer_1" xmlns="http://www.w3.org/2000/svg" xmlns:xlink="http://www.w3.org/1999/xlink" x="0px" y="0px"
	 viewBox="0 0 300 46" style="enable-background:new 0 0 300 46;" xml:space="preserve">
<style type="text/css">
	.st0{fill:#FFFFFF;}
</style>
<g>
	<g>
		<path class="st0" d="M13,22.8c0-2.4-1.8-4.4-4.2-4.7c-0.4,1.5-0.6,3.1-0.6,4.7s0.2,3.2,0.6,4.7C11.2,27.2,13,25.2,13,22.8z"/>
		<path class="st0" d="M15.8,21.2c-0.8,0-1.5,0.7-1.5,1.5s0.7,1.5,1.5,1.5c0.8,0,1.5-0.7,1.5-1.5S16.6,21.2,15.8,21.2z"/>
		<path class="st0" d="M36.4,22.8c0,2.5,1.8,4.4,4.2,4.7c0.4-1.5,0.6-3.1,0.6-4.7S41,19.5,40.6,18C38.3,18.3,36.4,20.3,36.4,22.8z"
			/>
		<path class="st0" d="M33.6,21.2c-0.8,0-1.5,0.7-1.5,1.5s0.7,1.5,1.5,1.5c0.8,0,1.5-0.7,1.5-1.5S34.5,21.2,33.6,21.2z"/>
		<path class="st0" d="M24.7,34.5c-2.5,0-4.4,1.8-4.7,4.2c1.5,0.4,3.1,0.6,4.7,0.6c1.6,0,3.2-0.2,4.7-0.6
			C29.1,36.3,27.1,34.5,24.7,34.5z"/>
		<path class="st0" d="M24.7,30.2c-0.8,0-1.5,0.7-1.5,1.5c0,0.8,0.7,1.5,1.5,1.5c0.8,0,1.5-0.7,1.5-1.5
			C26.2,30.9,25.5,30.2,24.7,30.2z"/>
		<path class="st0" d="M24.7,11.1c2.4,0,4.4-1.8,4.7-4.2c-1.5-0.4-3.1-0.6-4.7-0.6c-1.6,0-3.2,0.2-4.7,0.6
			C20.2,9.2,22.3,11.1,24.7,11.1z"/>
		<path class="st0" d="M24.7,12.4c-0.8,0-1.5,0.7-1.5,1.5c0,0.8,0.7,1.5,1.5,1.5c0.8,0,1.5-0.7,1.5-1.5C26.2,13,25.5,12.4,24.7,12.4
			z"/>
		<path class="st0" d="M33,31c-1.7,1.7-1.9,4.4-0.4,6.3c2.8-1.6,5.1-3.9,6.7-6.7C37.4,29.2,34.7,29.3,33,31z"/>
		<path class="st0" d="M30,28c-0.6,0.6-0.6,1.5,0,2.1c0.6,0.6,1.5,0.6,2.1,0c0.6-0.6,0.6-1.5,0-2.1C31.5,27.4,30.6,27.4,30,28z"/>
		<path class="st0" d="M16.4,14.5c1.7-1.7,1.9-4.4,0.4-6.3c-2.8,1.6-5.1,3.9-6.7,6.7C12,16.3,14.7,16.2,16.4,14.5z"/>
		<path class="st0" d="M17.3,15.4c-0.6,0.6-0.6,1.5,0,2.1c0.6,0.6,1.5,0.6,2.1,0c0.6-0.6,0.6-1.5,0-2.1
			C18.9,14.8,17.9,14.8,17.3,15.4z"/>
		<path class="st0" d="M33,14.5c1.7,1.7,4.4,1.9,6.3,0.4c-1.6-2.8-3.9-5.1-6.7-6.7C31.1,10,31.3,12.7,33,14.5z"/>
		<path class="st0" d="M32.1,17.5c0.6-0.6,0.6-1.5,0-2.1c-0.6-0.6-1.5-0.6-2.1,0c-0.6,0.6-0.6,1.5,0,2.1
			C30.5,18.1,31.5,18.1,32.1,17.5z"/>
		<path class="st0" d="M16.4,31c-1.7-1.7-4.4-1.9-6.3-0.4c1.6,2.8,3.9,5.1,6.7,6.7C18.3,35.5,18.1,32.7,16.4,31z"/>
		<path class="st0" d="M17.3,28c-0.6,0.6-0.6,1.5,0,2.1c0.6,0.6,1.5,0.6,2.1,0c0.6-0.6,0.6-1.5,0-2.1C18.9,27.4,17.9,27.4,17.3,28z"
			/>
	</g>
	<g>
		<path class="st0" d="M63.1,29.7c0,3.2-2.1,4.4-5.3,4.4h-0.1c-3.2,0-5.3-1.2-5.3-4.4V17.2c0-3.1,2.1-4.4,5.3-4.4h0.1
			c3.2,0,5.3,1.3,5.3,4.4v2.5h-3.5v-2c0-1.5-0.7-1.9-1.8-1.9c-1.1,0-1.8,0.5-1.8,1.9v11.5c0,1.5,0.7,1.9,1.8,1.9
			c1.1,0,1.8-0.5,1.8-1.9v-2.4h3.5V29.7z"/>
		<path class="st0" d="M75.4,29.2h-3.8l-0.7,4.7h-3.4l3.9-21h4.4l4,21h-3.5L75.4,29.2z M74.9,26.4L73.5,17L72,26.4H74.9z"/>
		<path class="st0" d="M84.4,33.9V13h3.5l4.4,12.9V13h3.2v21h-3.3l-4.6-13.6v13.6H84.4z"/>
		<path class="st0" d="M108,33.9h-3.8l-4-21h3.5l2.4,15.5l2.4-15.5h3.4L108,33.9z"/>
		<path class="st0" d="M122.3,29.2h-3.8l-0.7,4.7h-3.4l3.9-21h4.4l4,21H123L122.3,29.2z M121.8,26.4l-1.5-9.3l-1.5,9.3H121.8z"/>
		<path class="st0" d="M137.5,19.1v-1.6c0-1.3-0.7-1.8-1.8-1.8c-1,0-1.8,0.5-1.8,1.8v1.4c0,1.1,0.4,1.5,1.3,2.1l2.4,1.4
			c2,1.2,3.2,2.1,3.2,4.3v3c0,3.2-2,4.4-5.2,4.4h-0.1c-3.2,0-5.2-1.1-5.2-4.4v-2.2h3.4v1.8c0,1.3,0.7,1.9,1.8,1.9
			c1,0,1.8-0.6,1.8-1.9v-1.6c0-1.1-0.3-1.6-1.4-2.2l-2.4-1.4c-2-1.2-3.2-2.1-3.2-4.3V17c0-3.1,2.3-4.3,5.1-4.3h0.1
			c2.9,0,5.1,1.2,5.1,4.3v2.1L137.5,19.1L137.5,19.1z"/>
	</g>
</g>
<g>
	<line class="st0" x1="158.7" y1="6.3" x2="158.7" y2="39.3"/>
	<rect x="157.7" y="6.3" class="st0" width="2" height="33"/>
</g>
<polygon class="st0" points="179.5,33.7 179.5,12.8 182.8,12.8 182.8,30.8 188.9,30.8 188.9,33.7 "/>
<path class="st0" d="M198.2,33.8c-1.5,0-2.8-0.5-3.8-1.4c-1-0.9-1.6-2.1-1.6-3.4V17.7c0-1.3,0.5-2.5,1.6-3.4c1-0.9,2.3-1.4,3.8-1.4
	c1.5,0,2.8,0.5,3.8,1.4c1,0.9,1.6,2.1,1.6,3.4V29c0,1.3-0.5,2.5-1.6,3.4C201,33.4,199.7,33.8,198.2,33.8z M198.2,15.8
	c-0.6,0-1.1,0.2-1.5,0.5c-0.4,0.4-0.6,0.8-0.6,1.3V29c0,0.5,0.2,1,0.6,1.3c0.4,0.4,0.9,0.5,1.5,0.5c0.6,0,1.1-0.2,1.5-0.5
	c0.4-0.4,0.6-0.8,0.6-1.3V17.6c0-0.5-0.2-1-0.6-1.3C199.2,16,198.7,15.8,198.2,15.8z"/>
<path class="st0" d="M214.2,33.8c-1.5,0-2.8-0.5-3.8-1.4c-1-0.9-1.6-2.1-1.6-3.4V17.7c0-1.3,0.5-2.5,1.6-3.4c1-0.9,2.3-1.4,3.8-1.4
	c1.5,0,2.8,0.5,3.8,1.4c1,0.9,1.6,2.1,1.6,3.4v2.3h-3.4v-2.3c0-0.5-0.2-1-0.6-1.3c-0.4-0.4-0.9-0.6-1.5-0.6c-0.6,0-1.1,0.2-1.5,0.6
	c-0.4,0.4-0.6,0.8-0.6,1.3v11.3c0,0.5,0.2,1,0.6,1.3c0.4,0.4,0.9,0.5,1.5,0.5c0.6,0,1.1-0.2,1.5-0.5c0.4-0.4,0.6-0.8,0.6-1.3v-4.2
	h-1.9v-2.9h5.3v7.1c0,1.3-0.5,2.5-1.6,3.4C217,33.3,215.7,33.8,214.2,33.8z"/>
<rect x="224.8" y="12.8" class="st0" width="3.3" height="20.9"/>
<polygon class="st0" points="241.5,33.8 236.7,20.3 236.5,20.3 236.5,33.8 233.2,33.8 233.2,12.8 237,12.8 241.6,27 241.8,26.9 
	241.8,12.8 245.1,12.8 245.1,33.8 "/>
</svg>
